# xmcd
#
# Track frame offsets: 
#        150
#        28931
#        56897
#        70680
#        82499
#        106982
#        127222
#        142335
#        158131
#        178831
#
# Disc length: 2605 seconds
#
# Revision: 0
# Processed by: cddbd v1.5.2PL0 Copyright (c) Steve Scherf et al.
# Submitted via: ExactAudioCopy v1.3
#
DISCID=a00a2b0a
DTITLE=Jeff Strahan - Monkey Around
DYEAR=2013
DGENRE=Texas Blues
TTITLE0=Don't Get Too Low
TTITLE1=Curtains
TTITLE2=Dangerous Curves
TTITLE3=Monkey Around
TTITLE4=The One
TTITLE5=Can't Change Me
TTITLE6=Hard Headed Woman
TTITLE7=420
TTITLE8=Baptist Bootleggers
TTITLE9=Two Shades
EXTD=
EXTT0=
EXTT1=
EXTT2=
EXTT3=
EXTT4=
EXTT5=
EXTT6=
EXTT7=
EXTT8=
EXTT9=
PLAYORDER=
